<svg width="173" height="29" viewBox="0 0 173 29" fill="none" xmlns="http://www.w3.org/2000/svg">
<path d="M10.7335 18.6757L23.9752 5.93887C26.9762 3.05226 31.9332 4.02541 33.6201 7.83236L39.2641 20.5692C41.022 24.5363 38.1177 29 33.7786 29H14.8929C9.49106 29 6.84031 22.4205 10.7335 18.6757Z" fill="#FAFAFA"/>
<path d="M19.0624 17.1323L23.2892 13.0221C25.2909 11.0756 28.6205 11.7268 29.7413 14.284L31.5429 18.3942C32.7014 21.0373 30.7652 24 27.8794 24H21.851C18.2604 24 16.4882 19.6356 19.0624 17.1323Z" fill="#1B1B1B"/>
<path d="M64.864 23V20.408L64.696 19.856V15.32C64.696 14.44 64.432 13.76 63.904 13.28C63.376 12.784 62.576 12.536 61.504 12.536C60.784 12.536 60.072 12.648 59.368 12.872C58.68 13.096 58.096 13.408 57.616 13.808L56.44 11.624C57.128 11.096 57.944 10.704 58.888 10.448C59.848 10.176 60.84 10.04 61.864 10.04C63.72 10.04 65.152 10.488 66.16 11.384C67.184 12.264 67.696 13.632 67.696 15.488V23H64.864ZM60.832 23.168C59.872 23.168 59.032 23.008 58.312 22.688C57.592 22.352 57.032 21.896 56.632 21.32C56.248 20.728 56.056 20.064 56.056 19.328C56.056 18.608 56.224 17.96 56.56 17.384C56.912 16.808 57.48 16.352 58.264 16.016C59.048 15.68 60.088 15.512 61.384 15.512H65.104V17.504H61.6C60.576 17.504 59.888 17.672 59.536 18.008C59.184 18.328 59.008 18.728 59.008 19.208C59.008 19.752 59.224 20.184 59.656 20.504C60.088 20.824 60.688 20.984 61.456 20.984C62.192 20.984 62.848 20.816 63.424 20.48C64.016 20.144 64.44 19.648 64.696 18.992L65.2 20.792C64.912 21.544 64.392 22.128 63.64 22.544C62.904 22.96 61.968 23.168 60.832 23.168ZM71.5461 23V5.192H74.5461V23H71.5461ZM83.9404 23.168C82.5324 23.168 81.4444 22.808 80.6764 22.088C79.9084 21.352 79.5244 20.272 79.5244 18.848V7.352H82.5244V18.776C82.5244 19.384 82.6764 19.856 82.9804 20.192C83.3004 20.528 83.7404 20.696 84.3004 20.696C84.9724 20.696 85.5324 20.52 85.9804 20.168L86.8204 22.304C86.4684 22.592 86.0364 22.808 85.5244 22.952C85.0124 23.096 84.4844 23.168 83.9404 23.168ZM77.4124 12.68V10.28H85.9564V12.68H77.4124ZM97.1843 23V20.408L97.0163 19.856V15.32C97.0163 14.44 96.7523 13.76 96.2243 13.28C95.6963 12.784 94.8963 12.536 93.8243 12.536C93.1043 12.536 92.3923 12.648 91.6883 12.872C91.0003 13.096 90.4163 13.408 89.9363 13.808L88.7603 11.624C89.4483 11.096 90.2643 10.704 91.2083 10.448C92.1683 10.176 93.1603 10.04 94.1843 10.04C96.0403 10.04 97.4723 10.488 98.4803 11.384C99.5043 12.264 100.016 13.632 100.016 15.488V23H97.1843ZM93.1523 23.168C92.1923 23.168 91.3523 23.008 90.6323 22.688C89.9123 22.352 89.3523 21.896 88.9523 21.32C88.5683 20.728 88.3763 20.064 88.3763 19.328C88.3763 18.608 88.5443 17.96 88.8803 17.384C89.2323 16.808 89.8003 16.352 90.5843 16.016C91.3683 15.68 92.4083 15.512 93.7043 15.512H97.4243V17.504H93.9203C92.8963 17.504 92.2083 17.672 91.8563 18.008C91.5043 18.328 91.3283 18.728 91.3283 19.208C91.3283 19.752 91.5443 20.184 91.9763 20.504C92.4083 20.824 93.0083 20.984 93.7763 20.984C94.5123 20.984 95.1683 20.816 95.7443 20.48C96.3363 20.144 96.7603 19.648 97.0163 18.992L97.5203 20.792C97.2323 21.544 96.7123 22.128 95.9603 22.544C95.2243 22.96 94.2883 23.168 93.1523 23.168ZM109.77 23.168C108.426 23.168 107.226 22.888 106.17 22.328C105.13 21.752 104.314 20.968 103.722 19.976C103.13 18.984 102.834 17.856 102.834 16.592C102.834 15.312 103.13 14.184 103.722 13.208C104.314 12.216 105.13 11.44 106.17 10.88C107.226 10.32 108.426 10.04 109.77 10.04C111.018 10.04 112.114 10.296 113.058 10.808C114.018 11.304 114.746 12.04 115.242 13.016L112.938 14.36C112.554 13.752 112.082 13.304 111.522 13.016C110.978 12.728 110.386 12.584 109.746 12.584C109.01 12.584 108.346 12.744 107.754 13.064C107.162 13.384 106.698 13.848 106.362 14.456C106.026 15.048 105.858 15.76 105.858 16.592C105.858 17.424 106.026 18.144 106.362 18.752C106.698 19.344 107.162 19.8 107.754 20.12C108.346 20.44 109.01 20.6 109.746 20.6C110.386 20.6 110.978 20.456 111.522 20.168C112.082 19.88 112.554 19.432 112.938 18.824L115.242 20.168C114.746 21.128 114.018 21.872 113.058 22.4C112.114 22.912 111.018 23.168 109.77 23.168ZM125.731 23V20.408L125.563 19.856V15.32C125.563 14.44 125.299 13.76 124.771 13.28C124.243 12.784 123.443 12.536 122.371 12.536C121.651 12.536 120.939 12.648 120.235 12.872C119.547 13.096 118.963 13.408 118.483 13.808L117.307 11.624C117.995 11.096 118.811 10.704 119.755 10.448C120.715 10.176 121.707 10.04 122.731 10.04C124.587 10.04 126.019 10.488 127.027 11.384C128.051 12.264 128.563 13.632 128.563 15.488V23H125.731ZM121.699 23.168C120.739 23.168 119.899 23.008 119.179 22.688C118.459 22.352 117.899 21.896 117.499 21.32C117.115 20.728 116.923 20.064 116.923 19.328C116.923 18.608 117.091 17.96 117.427 17.384C117.779 16.808 118.347 16.352 119.131 16.016C119.915 15.68 120.955 15.512 122.251 15.512H125.971V17.504H122.467C121.443 17.504 120.755 17.672 120.403 18.008C120.051 18.328 119.875 18.728 119.875 19.208C119.875 19.752 120.091 20.184 120.523 20.504C120.955 20.824 121.555 20.984 122.323 20.984C123.059 20.984 123.715 20.816 124.291 20.48C124.883 20.144 125.307 19.648 125.563 18.992L126.067 20.792C125.779 21.544 125.259 22.128 124.507 22.544C123.771 22.96 122.835 23.168 121.699 23.168ZM148.589 10.04C149.613 10.04 150.517 10.24 151.301 10.64C152.101 11.04 152.725 11.656 153.173 12.488C153.621 13.304 153.845 14.36 153.845 15.656V23H150.845V16.04C150.845 14.904 150.597 14.056 150.101 13.496C149.605 12.936 148.893 12.656 147.965 12.656C147.309 12.656 146.725 12.8 146.213 13.088C145.717 13.376 145.325 13.8 145.037 14.36C144.765 14.92 144.629 15.632 144.629 16.496V23H141.629V16.04C141.629 14.904 141.381 14.056 140.885 13.496C140.389 12.936 139.677 12.656 138.749 12.656C138.093 12.656 137.509 12.8 136.997 13.088C136.501 13.376 136.109 13.8 135.821 14.36C135.549 14.92 135.413 15.632 135.413 16.496V23H132.413V10.184H135.269V13.592L134.765 12.584C135.197 11.752 135.821 11.12 136.637 10.688C137.469 10.256 138.413 10.04 139.469 10.04C140.669 10.04 141.709 10.336 142.589 10.928C143.485 11.52 144.077 12.416 144.365 13.616L143.189 13.208C143.605 12.248 144.293 11.48 145.253 10.904C146.213 10.328 147.325 10.04 148.589 10.04ZM164.783 23.168C163.743 23.168 162.791 22.928 161.927 22.448C161.079 21.968 160.399 21.248 159.887 20.288C159.391 19.312 159.143 18.08 159.143 16.592C159.143 15.088 159.383 13.856 159.863 12.896C160.359 11.936 161.031 11.224 161.879 10.76C162.727 10.28 163.695 10.04 164.783 10.04C166.047 10.04 167.159 10.312 168.119 10.856C169.095 11.4 169.863 12.16 170.423 13.136C170.999 14.112 171.287 15.264 171.287 16.592C171.287 17.92 170.999 19.08 170.423 20.072C169.863 21.048 169.095 21.808 168.119 22.352C167.159 22.896 166.047 23.168 164.783 23.168ZM157.679 27.656V10.184H160.535V13.208L160.439 16.616L160.679 20.024V27.656H157.679ZM164.447 20.6C165.167 20.6 165.807 20.44 166.367 20.12C166.943 19.8 167.399 19.336 167.735 18.728C168.071 18.12 168.239 17.408 168.239 16.592C168.239 15.76 168.071 15.048 167.735 14.456C167.399 13.848 166.943 13.384 166.367 13.064C165.807 12.744 165.167 12.584 164.447 12.584C163.727 12.584 163.079 12.744 162.503 13.064C161.927 13.384 161.471 13.848 161.135 14.456C160.799 15.048 160.631 15.76 160.631 16.592C160.631 17.408 160.799 18.12 161.135 18.728C161.471 19.336 161.927 19.8 162.503 20.12C163.079 20.44 163.727 20.6 164.447 20.6Z" fill="white"/>
</svg>
